<svg xmlns="http://www.w3.org/2000/svg" width="1280" height="210" viewBox="0 0 1280 210" role="img" aria-labelledby="title"><title id="title">Game pixels, a retinal adapter, the fixed full fly network, and a trainable action decoder.</title>
<defs>
  <radialGradient id="halo"><stop stop-color="#458578" stop-opacity=".29"/><stop offset="1" stop-color="#163631" stop-opacity="0"/></radialGradient>
  <linearGradient id="wing" x1="0" y1="1" x2=".8" y2="0"><stop stop-color="#37685e" stop-opacity=".8"/><stop offset=".45" stop-color="#c9e6d3" stop-opacity=".72"/><stop offset=".76" stop-color="#efffed" stop-opacity=".93"/><stop offset="1" stop-color="#548e85" stop-opacity=".36"/></linearGradient>
  <linearGradient id="body" x1="0" y1="0" x2=".3" y2="1"><stop stop-color="#d5b780"/><stop offset=".18" stop-color="#756c4b"/><stop offset=".46" stop-color="#363e31"/><stop offset=".76" stop-color="#202621"/><stop offset="1" stop-color="#101613"/></linearGradient>
  <linearGradient id="thorax" x1="0" y1="0" x2=".8" y2="1"><stop stop-color="#b2ba8d"/><stop offset=".3" stop-color="#5b6852"/><stop offset=".68" stop-color="#273d32"/><stop offset="1" stop-color="#0e1a15"/></linearGradient>
  <radialGradient id="eye" cx=".32" cy=".25" r=".8"><stop stop-color="#ffd697"/><stop offset=".24" stop-color="#ff8950"/><stop offset=".65" stop-color="#d94d2c"/><stop offset="1" stop-color="#6e251d"/></radialGradient>
  <linearGradient id="edge"><stop stop-color="#eaf7d3"/><stop offset="1" stop-color="#447362"/></linearGradient>
  <filter id="shadow" x="-70%" y="-70%" width="240%" height="240%"><feDropShadow dx="0" dy="25" stdDeviation="20" flood-color="#000" flood-opacity=".48"/></filter>
  <clipPath id="eyeClip"><ellipse cx="91" cy="-6" rx="34" ry="43" transform="rotate(-22 91 -6)"/></clipPath>
</defs>
<rect width="1280" height="210" fill="#101712"/><path d="M32 31h280" stroke="#5c7054"/><text x="32" y="70" fill="#ff9878" font-family="monospace" font-size="15">01</text><text x="32" y="113" fill="#eef1e2" font-family="Arial,sans-serif" font-size="25" font-weight="700">Game pixels</text><text x="32" y="145" fill="#a4b195" font-family="Arial,sans-serif" font-size="16">A visual observation</text><path d="M293 68h19m-5-5 5 5-5 5" fill="none" stroke="#a4b195" stroke-width="1.5"/><path d="M344 31h280" stroke="#5c7054"/><text x="344" y="70" fill="#ff9878" font-family="monospace" font-size="15">02</text><text x="344" y="113" fill="#eef1e2" font-family="Arial,sans-serif" font-size="25" font-weight="700">Retinal adapter</text><text x="344" y="145" fill="#a4b195" font-family="Arial,sans-serif" font-size="16">A modeled projection</text><path d="M605 68h19m-5-5 5 5-5 5" fill="none" stroke="#a4b195" stroke-width="1.5"/><path d="M656 31h280" stroke="#5c7054"/><text x="656" y="70" fill="#ff9878" font-family="monospace" font-size="15">03</text><text x="656" y="113" fill="#eef1e2" font-family="Arial,sans-serif" font-size="25" font-weight="700">Full fly network</text><text x="656" y="145" fill="#a4b195" font-family="Arial,sans-serif" font-size="16">Mapped weights stay fixed</text><path d="M917 68h19m-5-5 5 5-5 5" fill="none" stroke="#a4b195" stroke-width="1.5"/><path d="M968 31h280" stroke="#ff805c"/><text x="968" y="70" fill="#ff9878" font-family="monospace" font-size="15">04</text><text x="968" y="113" fill="#eef1e2" font-family="Arial,sans-serif" font-size="25" font-weight="700">Action decoder</text><text x="968" y="145" fill="#a4b195" font-family="Arial,sans-serif" font-size="16">Learns flap or wait</text></svg>
